<svg width="12" height="11" viewBox="0 0 12 11" fill="none" xmlns="http://www.w3.org/2000/svg">
<path d="M6.72234 0.342658L8.00473 2.95107C8.09391 3.13249 8.26633 3.2582 8.46579 3.28724L11.3334 3.70555C11.8358 3.77888 12.0362 4.39837 11.6728 4.75382L9.59782 6.78418C9.45362 6.92536 9.38768 7.12892 9.42184 7.32819L9.9116 10.1952C9.99745 10.6973 9.47235 11.0801 9.02315 10.8432L6.45837 9.48973C6.28001 9.39569 6.06679 9.39569 5.88844 9.48973L3.32366 10.8432C2.87445 11.0803 2.34935 10.6973 2.43521 10.1952L2.92497 7.32819C2.95912 7.12892 2.89319 6.92536 2.74899 6.78418L0.673965 4.75382C0.310617 4.39813 0.511027 3.77864 1.01336 3.70555L3.88101 3.28724C4.08047 3.2582 4.2529 3.13249 4.34208 2.95107L5.62447 0.342658C5.84883 -0.114219 6.49774 -0.114219 6.72234 0.342658Z" fill="#D9D9E0"/>
</svg>
